# xmcd CD database file
#
# Track frame offsets:
#	180
#	15204
#	31284
#	47329
#	61198
#	77735
#	93473
#	111205
#	122167
#	135303
#	146462
#	162449
#
# Disc length: 2388 seconds
#
# Revision: 0
# Processed by: cddbd v1.5.2PL0 Copyright (c) Steve Scherf et al.
# Submitted via: CDex 1.70beta2
#
DISCID=8d09520c
DTITLE=Siggi - Danke!
DYEAR=1994
DGENRE=Country
TTITLE0=Siggi - Geisterreiter
TTITLE1=Siggi - Bist du sauer
TTITLE2=Siggi - Achy Breaky Heart
TTITLE3=Siggi - Amarillo Am Morgen
TTITLE4=Siggi - Danke
TTITLE5=Siggi - Detroit City
TTITLE6=Siggi - More Of You
TTITLE7=Siggi - Auf der Autobahn
TTITLE8=Siggi - Lass mich los
TTITLE9=Siggi - Zur Einkehr
TTITLE10=Siggi - Das Pferdehalfter
TTITLE11=Siggi - Immer unterwegs
EXTD=YEAR: 1994
EXTT0=
EXTT1=
EXTT2=
EXTT3=
EXTT4=
EXTT5=
EXTT6=
EXTT7=
EXTT8=
EXTT9=
EXTT10=
EXTT11=
PLAYORDER=
